<svg width="18" height="24" viewBox="0 0 18 24" fill="none" xmlns="http://www.w3.org/2000/svg">
<path d="M16.1837 24H2.39356C2.10982 23.9976 1.83863 23.8828 1.63951 23.6806C1.4404 23.4785 1.32964 23.2056 1.33156 22.9218V20.2983C1.32653 19.5159 1.62629 18.7623 2.16732 18.1972C2.70836 17.632 3.44816 17.2997 4.23001 17.2706C4.31356 14.2589 4.92586 12.2594 6.05236 11.3204C6.45226 10.9922 6.84631 10.6304 7.16851 10.3082C6.84184 10.2388 6.52142 10.1428 6.21046 10.0211C6.09481 9.97846 5.96881 9.93316 5.87356 9.90376C5.81941 9.94771 5.75206 10.0088 5.69776 10.0577C5.39925 10.3686 5.04171 10.6168 4.64606 10.7879C4.25041 10.9589 3.82461 11.0493 3.39361 11.0537C1.52296 11.0537 0.781807 9.15826 0.753607 7.96366C0.734557 7.21651 1.51096 6.52816 3.16336 5.24341C3.53386 4.95346 3.86941 4.69561 4.06711 4.50961C4.23826 4.32952 4.37307 4.11811 4.46416 3.88696C4.57285 3.55223 4.77626 3.25619 5.04976 3.03469C5.32325 2.81319 5.6551 2.67573 6.00511 2.63896C6.10835 2.63469 6.21036 2.61481 6.30766 2.58001H6.30616C6.27541 2.58001 6.30616 2.34571 6.10261 1.55911C6.02017 1.33837 6.00512 1.09813 6.05935 0.868829C6.11359 0.639526 6.23467 0.431483 6.40726 0.271062C7.09501 -0.317838 8.19871 0.152412 9.72661 0.798312C10.2627 1.02541 10.815 1.26121 11.31 1.42231C13.623 2.18266 16.2 5.65726 16.2 9.42916C16.1651 11.0284 15.8293 12.6067 15.21 14.0816C14.7918 15.1029 14.511 16.1753 14.3751 17.2706C15.152 17.3071 15.8846 17.6426 16.4197 18.2069C16.9549 18.7712 17.251 19.5206 17.2463 20.2983V22.9218C17.2482 23.2057 17.1373 23.4786 16.9381 23.6808C16.7388 23.883 16.4675 23.9978 16.1837 24ZM2.83156 22.5H15.7457V20.2983C15.7514 19.8991 15.5985 19.5139 15.3206 19.2272C15.0427 18.9405 14.6624 18.7757 14.2632 18.7691H12.8408V18.0191C12.8804 16.4895 13.2053 14.9807 13.7988 13.5704C14.3568 12.2589 14.6625 10.8539 14.7 9.42916C14.709 8.08651 14.3554 6.76633 13.6765 5.60794C12.9976 4.44954 12.0186 3.49589 10.8428 2.84761C10.3125 2.67481 9.71776 2.42431 9.14206 2.17966C8.69206 1.98931 8.08591 1.73296 7.65376 1.59466C7.76009 1.90145 7.80146 2.22701 7.77525 2.55064C7.74904 2.87428 7.65582 3.18893 7.50151 3.47461C7.33856 3.6764 7.13326 3.8399 6.90013 3.95356C6.667 4.06723 6.41174 4.12826 6.15241 4.13236C6.01321 4.14556 6.00151 4.14736 5.81986 4.52926C5.65061 4.9319 5.40371 5.29725 5.09326 5.60446C4.87066 5.81251 4.50001 6.10261 4.08541 6.42631C3.42762 6.89818 2.8169 7.4324 2.26171 8.02156C2.29831 8.37016 2.48881 9.55366 3.39406 9.55366C3.64109 9.54803 3.88424 9.49094 4.10796 9.38603C4.33168 9.28111 4.53106 9.13069 4.69336 8.94436C4.84404 8.76456 5.0333 8.62102 5.24707 8.52439C5.46084 8.42776 5.69363 8.38054 5.92816 8.38621C6.202 8.4306 6.46988 8.50609 6.72661 8.61121C7.15887 8.82764 7.6477 8.90443 8.12551 8.83096C8.33425 8.74305 8.56796 8.73459 8.78252 8.80719C8.99707 8.87979 9.17763 9.02841 9.29011 9.22501C9.44086 9.51361 9.79396 10.1918 7.00936 12.4755C6.20656 13.145 5.73781 15.1005 5.72026 17.8529L5.72461 18.0179V18.7679H4.31551C3.91605 18.7742 3.53543 18.9388 3.25721 19.2255C2.97899 19.5122 2.8259 19.8976 2.83156 20.2971V22.5Z" fill="#9CA3AF"/>
</svg>
