<svg width="200" height="47" viewBox="0 0 200 47" fill="none" xmlns="http://www.w3.org/2000/svg">
<path d="M8.44914 10.5558H0V45.2788H8.44914V10.5558Z" fill="#272E71"/>
<path d="M22.8275 45.2788H14.4155V10.5558H22.8275L35.5383 30.0481V10.5558H43.9504V45.2788H35.5383L22.8275 25.453V45.2788Z" fill="#272E71"/>
<path d="M58.2915 45.2788H49.8423V10.5558H58.2915L70.9652 30.0481V10.5558H79.4143V45.2788H70.9652L58.2915 25.453V45.2788Z" fill="#272E71"/>
<path d="M105.466 10H100.537V23.7484H105.466V10Z" fill="#E4B302"/>
<path d="M146.711 33.2352V36.1628H137.372V18.8939H140.893V33.2352H146.711Z" fill="#272E71"/>
<path d="M150.713 27.5657C150.713 30.7527 153.011 33.3097 156.05 33.3097C159.014 33.3097 161.386 30.8639 161.386 27.6769C161.386 24.3047 159.162 21.8589 156.05 21.8589C153.011 21.8589 150.713 24.3047 150.713 27.5657ZM162.757 21.4512C164.239 23.0818 164.98 25.1199 164.98 27.6769C164.98 32.6056 161.052 36.6078 156.124 36.6078C151.047 36.6078 147.119 32.6797 147.119 27.6769C147.119 22.5259 151.047 18.5978 156.198 18.5978C158.718 18.5607 161.015 19.5613 162.757 21.4512Z" fill="#272E71"/>
<path d="M171.355 26.009H177.395V28.9736H171.355V36.1628H167.723V18.8939H177.395V21.7844H171.355V26.009Z" fill="#272E71"/>
<path d="M188.03 36.1628H184.51V21.7844H180.359V18.8939H192.144V21.7844H188.03V36.1628Z" fill="#272E71"/>
<path d="M108.32 10.4802V19.337C111.099 21.1528 112.915 24.4139 112.915 28.342C112.915 33.9748 108.505 38.5699 103.021 38.5699C97.4622 38.5699 93.0153 33.9748 93.0153 28.1567C93.0153 24.3027 94.8311 21.1158 97.6104 19.2999V10.5543C94.8311 11.3696 92.2741 12.7778 90.236 14.6307C86.382 18.2994 84.3438 23.0798 84.3438 28.1567C84.3438 38.3105 92.6818 46.3149 103.243 46.3149C113.471 46.3149 121.735 38.1252 121.735 28.0455C121.55 19.4111 116.176 12.5184 108.32 10.4802Z" fill="#E4B302"/>
<path d="M196.406 41.7579H126.07C129.109 38.7933 130.999 33.3088 130.999 27.9354C130.999 22.5621 128.887 16.8923 126.07 14.113H196.406V41.7579ZM200 45.2784V10.5554H117.325C122.735 13.5941 125.922 18.8934 126.811 25.045C126.96 25.9343 127.071 26.9349 127.071 27.8984C127.071 28.8989 126.997 29.8624 126.811 30.7518C125.922 36.9034 122.735 42.2026 117.325 45.2414H200V45.2784Z" fill="#272E71"/>
</svg>
