<svg width="26" height="24" viewBox="0 0 26 24" fill="none" xmlns="http://www.w3.org/2000/svg">
<g clip-path="url(#clip0_1_1111)">
<path d="M13.725 15.1728C14.3525 15.1728 14.9659 14.9867 15.4877 14.6381C16.0094 14.2895 16.4161 13.7939 16.6562 13.2142C16.8964 12.6344 16.9592 11.9965 16.8368 11.381C16.7144 10.7656 16.4122 10.2002 15.9685 9.7565C15.5247 9.31278 14.9594 9.0106 14.3439 8.88818C13.7285 8.76575 13.0905 8.82858 12.5108 9.06873C11.931 9.30887 11.4355 9.71553 11.0869 10.2373C10.7382 10.7591 10.5522 11.3725 10.5522 12C10.5533 12.8411 10.8879 13.6475 11.4827 14.2423C12.0774 14.8371 12.8838 15.1717 13.725 15.1728ZM13.725 10.3278C14.0558 10.3278 14.3793 10.4259 14.6544 10.6098C14.9295 10.7936 15.1439 11.0549 15.2705 11.3606C15.3971 11.6663 15.4302 12.0027 15.3656 12.3272C15.301 12.6517 15.1416 12.9498 14.9076 13.1837C14.6736 13.4176 14.3755 13.5769 14.0509 13.6413C13.7264 13.7058 13.39 13.6726 13.0844 13.5459C12.7787 13.4192 12.5175 13.2047 12.3338 12.9295C12.15 12.6544 12.052 12.3309 12.0522 12C12.0525 11.5565 12.2289 11.1312 12.5425 10.8176C12.8561 10.5039 13.2814 10.3276 13.725 10.3272V10.3278Z" fill="#9CA3AF"/>
<path d="M6.79779 13.9863C6.74666 14.1789 6.77407 14.3839 6.87399 14.5563L8.08539 16.6554C8.13431 16.7408 8.1996 16.8156 8.27752 16.8757C8.35543 16.9358 8.44444 16.9799 8.53944 17.0055C8.73207 17.056 8.93683 17.0286 9.10944 16.9293L10.1699 16.3185C10.6471 16.7102 11.1856 17.0205 11.7637 17.237V18.4616C11.7637 18.6605 11.8427 18.8512 11.9834 18.9919C12.124 19.1325 12.3148 19.2116 12.5137 19.2116H14.9365C15.1354 19.2116 15.3262 19.1325 15.4668 18.9919C15.6075 18.8512 15.6865 18.6605 15.6865 18.4616V17.237C16.2646 17.0205 16.8031 16.7102 17.2802 16.3185L18.3407 16.9293C18.5134 17.0286 18.7181 17.056 18.9107 17.0055C19.0057 16.9799 19.0947 16.9358 19.1727 16.8757C19.2506 16.8156 19.3159 16.7408 19.3648 16.6554L20.5762 14.5563C20.6761 14.3839 20.7035 14.1789 20.6524 13.9863C20.5998 13.7945 20.4741 13.631 20.3023 13.5308L19.2418 12.92C19.3472 12.3112 19.3472 11.6888 19.2418 11.0801L20.3023 10.4693C20.4741 10.369 20.5998 10.2055 20.6524 10.0137C20.7035 9.82111 20.6761 9.6161 20.5762 9.44371L19.3648 7.3446C19.3159 7.25922 19.2506 7.18434 19.1727 7.12426C19.0948 7.06418 19.0057 7.02008 18.9107 6.9945C18.7181 6.94481 18.5136 6.97214 18.3407 7.0707L17.2802 7.6815C16.8031 7.2899 16.2646 6.97964 15.6865 6.7632V5.5386C15.6865 5.33969 15.6075 5.14893 15.4668 5.00827C15.3262 4.86762 15.1354 4.7886 14.9365 4.7886H12.5135C12.3146 4.7886 12.1239 4.86762 11.9832 5.00827C11.8426 5.14893 11.7635 5.33969 11.7635 5.5386V6.7632C11.1854 6.97969 10.647 7.29 10.1698 7.68165L9.10929 7.07085C8.93643 6.97229 8.73197 6.94496 8.53929 6.99465C8.44428 7.02023 8.35526 7.06433 8.27734 7.12441C8.19942 7.18449 8.13413 7.25937 8.08524 7.34475L6.87399 9.44385C6.77407 9.61625 6.74666 9.82126 6.79779 10.0139C6.85036 10.2057 6.97606 10.3692 7.14789 10.4694L8.20839 11.0802C8.10299 11.689 8.10299 12.3113 8.20839 12.9201L7.14789 13.5309C6.97609 13.631 6.85039 13.7945 6.79779 13.9863ZM9.78159 13.0958C9.57859 12.3794 9.57859 11.6207 9.78159 10.9043C9.82614 10.7442 9.81622 10.5739 9.75338 10.4201C9.69055 10.2663 9.57837 10.1377 9.43449 10.0547L8.54679 9.54345L9.00819 8.74365L9.89499 9.255C10.0386 9.33887 10.2062 9.37231 10.371 9.35003C10.5359 9.32774 10.6885 9.251 10.8047 9.132C11.3252 8.60115 11.9813 8.22319 12.7016 8.03925C12.8627 7.99767 13.0054 7.90372 13.1072 7.77219C13.209 7.64065 13.2642 7.479 13.2641 7.31265V6.2886H14.1865V7.3125C14.1864 7.47885 14.2416 7.6405 14.3434 7.77204C14.4453 7.90357 14.5879 7.99752 14.749 8.0391C15.4693 8.22304 16.1254 8.601 16.6459 9.13186C16.7621 9.25087 16.9148 9.32763 17.0796 9.34992C17.2444 9.3722 17.412 9.33874 17.5556 9.25485L18.4418 8.74365L18.9032 9.54345L18.0155 10.0547C17.8717 10.1378 17.7596 10.2664 17.6968 10.4201C17.6339 10.5739 17.6239 10.7442 17.6683 10.9043C17.8715 11.6206 17.8715 12.3794 17.6683 13.0958C17.6239 13.2558 17.6339 13.4261 17.6968 13.5799C17.7596 13.7336 17.8717 13.8622 18.0155 13.9454L18.9032 14.4566L18.4418 15.2564L17.5556 14.745C17.412 14.6611 17.2444 14.6277 17.0796 14.6499C16.9148 14.6722 16.7621 14.749 16.6459 14.868C16.1254 15.3989 15.4693 15.7768 14.749 15.9608C14.5879 16.0023 14.4453 16.0963 14.3434 16.2278C14.2416 16.3594 14.1864 16.521 14.1865 16.6874V17.7113H13.2635V16.6875C13.2636 16.5212 13.2084 16.3595 13.1066 16.228C13.0048 16.0964 12.8621 16.0025 12.701 15.9609C11.9807 15.777 11.3246 15.399 10.8041 14.8682C10.688 14.7493 10.5354 14.6726 10.3707 14.6503C10.206 14.628 10.0386 14.6613 9.89499 14.745L9.00879 15.2562L8.54739 14.4564L9.43509 13.9452C9.57883 13.862 9.69086 13.7335 9.75358 13.5797C9.8163 13.426 9.82615 13.2557 9.78159 13.0958Z" fill="#9CA3AF"/>
<path d="M23.749 6.89206C22.8056 5.04441 21.3705 3.493 19.6018 2.40875C17.8332 1.32449 15.7995 0.749464 13.725 0.747009C13.526 0.747009 13.3353 0.826027 13.1946 0.966679C13.054 1.10733 12.975 1.2981 12.975 1.49701C12.975 1.69592 13.054 1.88669 13.1946 2.02734C13.3353 2.16799 13.526 2.24701 13.725 2.24701C15.9151 2.24722 18.0415 2.98475 19.7614 4.34077C21.4813 5.69679 22.6947 7.59234 23.2059 9.72202C23.7172 11.8517 23.4967 14.0915 22.5798 16.0805C21.6629 18.0696 20.1031 19.692 18.1518 20.6865C16.721 21.4178 15.1312 21.7831 13.5247 21.7496C11.9182 21.7162 10.3451 21.2851 8.94597 20.4949C7.54685 19.7047 6.3654 18.5801 5.50728 17.2216C4.64916 15.863 4.14114 14.313 4.02865 12.7101L5.47075 12.8949L3.73885 8.75491L1.0195 12.3246L2.5147 12.5162C2.59204 14.1914 3.0434 15.8282 3.83568 17.3063C4.62795 18.7844 5.74104 20.0665 7.09332 21.0584C8.44559 22.0503 10.0027 22.727 11.6506 23.0387C13.2984 23.3505 14.9952 23.2894 16.6163 22.8601C18.2375 22.4307 19.742 21.6439 21.0195 20.5573C22.297 19.4708 23.315 18.112 23.999 16.5808C24.683 15.0495 25.0156 13.3846 24.9723 11.7081C24.929 10.0316 24.5111 8.38599 23.749 6.89206Z" fill="#9CA3AF"/>
</g>
<defs>
<clipPath id="clip0_1_1111">
<rect width="24" height="24" fill="white" transform="translate(1)"/>
</clipPath>
</defs>
</svg>
